<svg width="19" height="16" viewBox="0 0 19 16" fill="none" xmlns="http://www.w3.org/2000/svg">
<path d="M16.2723 8.35375L11.2309 12.8538C11.1258 12.9476 10.9832 13.0003 10.8346 13.0003C10.686 13.0003 10.5434 12.9476 10.4383 12.8538C10.3332 12.7599 10.2741 12.6327 10.2741 12.5C10.2741 12.3673 10.3332 12.2401 10.4383 12.1463L14.5239 8.5H3.55264C3.40408 8.5 3.26161 8.44733 3.15656 8.35356C3.05151 8.25979 2.99249 8.13261 2.99249 8C2.99249 7.86739 3.05151 7.74022 3.15656 7.64645C3.26161 7.55268 3.40408 7.5 3.55264 7.5H14.5239L10.4383 3.85375C10.3332 3.75993 10.2741 3.63269 10.2741 3.5C10.2741 3.36732 10.3332 3.24007 10.4383 3.14625C10.5434 3.05243 10.686 2.99973 10.8346 2.99973C10.9832 2.99973 11.1258 3.05243 11.2309 3.14625L16.2723 7.64625C16.3243 7.69269 16.3657 7.74783 16.3938 7.80853C16.422 7.86923 16.4365 7.9343 16.4365 8C16.4365 8.06571 16.422 8.13077 16.3938 8.19147C16.3657 8.25217 16.3243 8.30732 16.2723 8.35375Z" fill="#1E1E1E"/>
</svg>
